<?xml version="1.0" ?><svg height="24px" version="1.1" viewBox="0 0 24 24" width="24px" xmlns="http://www.w3.org/2000/svg" xmlns:sketch="http://www.bohemiancoding.com/sketch/ns" xmlns:xlink="http://www.w3.org/1999/xlink"><title/><desc/><defs/><g fill="none" fill-rule="evenodd" id="miu" stroke="none" stroke-width="1"><g id="Artboard-1" transform="translate(-827.000000, -227.000000)"><g id="slice" transform="translate(215.000000, 119.000000)"/><path d="M835,231.52 L835,244.94 C835,244.94 835,250.000002 839.5,250 C844,249.999998 844,244.94 844,244.94 L844,231.52 C844,230.97 843,230.97 843,231.52 L843,244.940001 C843,244.940001 843.363636,249 839.5,249 C836,249 836,244.940001 836,244.940001 L836,231.52 C836,231.52 836,229.000001 838.5,229 C841,228.999999 841,231.52 841,231.52 L841,244.940001 C841,244.940001 841,246.517555 839.540816,246.517554 C838.081633,246.517552 838,244.940001 838,244.940001 L838,232.18 C838,231.63 837,231.63 837,232.18 L837,244.94 C837,244.94 836.813544,247.617556 839.540816,247.617554 C842,247.617552 842,244.94 842,244.94 L842,231.52 C842,231.52 842,227.999999 838.5,228 C835,228.000001 835,231.52 835,231.52 Z" fill="white" id="editor-attachment-paper-clip-2" transform="translate(839.500000, 239.000000) rotate(45.000000) translate(-839.500000, -239.000000) "/></g></g></svg>