<?xml version="1.0" ?><svg enable-background="new 0 0 32 32" height="32px" id="svg2" version="1.1" viewBox="0 0 32 32" width="32px" xml:space="preserve" xmlns="http://www.w3.org/2000/svg" xmlns:cc="http://creativecommons.org/ns#" xmlns:dc="http://purl.org/dc/elements/1.1/" xmlns:inkscape="http://www.inkscape.org/namespaces/inkscape" xmlns:rdf="http://www.w3.org/1999/02/22-rdf-syntax-ns#" xmlns:sodipodi="http://sodipodi.sourceforge.net/DTD/sodipodi-0.dtd" xmlns:svg="http://www.w3.org/2000/svg"><g id="background"><rect fill="none" height="32" width="32"/></g><g id="script"><g><path d="M3.382,31.999l0.723-1.445c-0.004-0.005,0.468-0.934,0.945-2.371l0,0C5.532,26.747,6.002,24.834,6,23l0,0    c0.017-1.679-0.921-4.14-1.93-6.629l0,0C3.08,13.86,2.017,11.322,2,8.999l0,0C2.015,4.68,4.083,0.622,4.105,0.552l0,0L4.381,0    h24.234l-0.723,1.446c0.004,0.004-0.466,0.933-0.946,2.369l0,0c-0.479,1.438-0.949,3.352-0.947,5.185l0,0    c-0.017,1.679,0.921,4.14,1.928,6.63l0,0c0.993,2.509,2.056,5.048,2.072,7.371l0,0c-0.017,4.319-2.082,8.377-2.106,8.445l0,0    l-0.276,0.554H3.382L3.382,31.999z M26.355,29.999c0.181-0.414,0.437-1.041,0.694-1.816l0,0c0.481-1.436,0.951-3.349,0.949-5.183    l0,0c0.017-1.679-0.921-4.14-1.928-6.629l0,0c-0.992-2.511-2.056-5.048-2.072-7.372l0,0C24.01,6.232,24.861,3.573,25.479,2l0,0    H5.642c-0.18,0.414-0.436,1.041-0.695,1.814l0,0C4.468,5.252,3.998,7.166,4,8.999l0,0c-0.019,1.679,0.921,4.14,1.928,6.63l0,0    C6.921,18.138,7.981,20.677,8,23l0,0c-0.011,2.768-0.862,5.427-1.479,6.999l0,0H26.355L26.355,29.999z"/></g></g></svg>