<?xml version="1.0" encoding="iso-8859-1"?>
<!-- Generator: Adobe Illustrator 13.0.2, SVG Export Plug-In . SVG Version: 6.00 Build 14948)  -->
<!DOCTYPE svg PUBLIC "-//W3C//DTD SVG 1.1//EN" "http://www.w3.org/Graphics/SVG/1.1/DTD/svg11.dtd">
<svg version="1.1" id="Layer_1" xmlns="http://www.w3.org/2000/svg" xmlns:xlink="http://www.w3.org/1999/xlink" x="0px" y="0px"
	 width="123.547px" height="123.539px" viewBox="-0.258 -0.548 123.547 123.539"
	 style="enable-background:new -0.258 -0.548 123.547 123.539;" xml:space="preserve">
<g>
	<path style="fill:#333;" d="M62.688,31.895c-3.055,0-5.562-2.508-5.562-5.586c0-3.102,2.508-5.594,5.562-5.594
		c3.102,0,5.594,2.492,5.594,5.594C68.281,29.387,65.789,31.895,62.688,31.895z M107.828,80.824l-2.977-18.555
		c-0.344-1.734-1.859-3.055-3.664-3.055c-1.102,0-2.07,0.469-2.781,1.219L84.688,73.301c-0.227,0.195-0.445,0.414-0.641,0.688
		c-1.289,1.758-0.922,4.25,0.836,5.562c0.336,0.25,0.703,0.414,1.07,0.562l3.445,1.148c-3.32,9.375-11.43,16.508-21.391,18.484
		l0.023-60.914c4.883-2.078,8.258-6.914,8.258-12.523c0-7.523-6.078-13.602-13.602-13.602c-7.492,0-13.594,6.078-13.594,13.602
		c0,5.609,3.492,10.445,8.352,12.523l0.023,61.008c-10.18-1.828-18.602-9.031-22-18.578l3.469-1.148
		c0.367-0.148,0.734-0.312,1.078-0.562c1.758-1.312,2.148-3.805,0.828-5.562c-0.195-0.273-0.391-0.492-0.633-0.688L26.484,60.434
		c-0.68-0.75-1.68-1.219-2.758-1.219c-1.828,0-3.367,1.32-3.688,3.055l-2.977,18.555c-0.07,0.289-0.094,0.609-0.094,0.93
		c0,2.195,1.781,3.977,3.977,3.977c0.414,0,0.805-0.047,1.172-0.172l3.227-1.047c5.125,15.578,19.797,26.852,37.102,26.852
		S94.43,100.09,99.555,84.488l3.219,1.07c0.367,0.125,0.758,0.172,1.172,0.172c2.203,0,3.984-1.781,3.984-3.977
		C107.93,81.434,107.898,81.113,107.828,80.824z"/>
</g>
</svg>
