<?xml version="1.0" encoding="iso-8859-1"?>
<!-- Generator: Adobe Illustrator 19.0.0, SVG Export Plug-In . SVG Version: 6.00 Build 0)  -->
<svg version="1.1" id="Layer_1" xmlns="http://www.w3.org/2000/svg" xmlns:xlink="http://www.w3.org/1999/xlink" x="0px" y="0px"
	 viewBox="-30 -30 600 600" style="enable-background:new 0 0 512 512;" xml:space="preserve">
<g>
	<g>
		<path style="fill:#333;" d="M437.13,41.85L260.575,0.502c-11.31-2.652-21.338,5.559-21.338,16.32v168.793c-31.5,4.571-58.944,21.819-76.979,46.391
			c4.125,0,182.11,0,187.483,0c-18.034-24.572-45.478-41.821-76.979-46.391v-67.421l164.851-43.823
			c7.434-1.976,12.569-8.758,12.455-16.45C449.953,50.23,444.619,43.603,437.13,41.85z"/>
	</g>
</g>
<g>
	<g>
		<path style="fill:#333;" d="M366.801,265.532c-9.281,0-212.581,0-221.605,0c-3.516,11.077-5.419,22.865-5.419,35.091
			c0,4.157,0.225,8.264,0.652,12.309c10.757-3.559,21.959-5.393,33.179-5.484c27.929-0.226,55.93,10.276,77.193,31.538
			c1.78,1.78,3.81,2.153,5.199,2.153c1.389,0,3.417-0.373,5.196-2.152c21.264-21.263,49.264-31.765,77.195-31.54
			c11.22,0.091,22.422,1.925,33.178,5.484c0.428-4.045,0.651-8.151,0.651-12.309C372.22,288.398,370.317,276.609,366.801,265.532z"
			/>
	</g>
</g>
<g>
	<g>
		<path style="fill:#337ab7;" d="M471.635,362.695c-6.545-6.545-17.159-6.545-23.706,0c-7.72,7.72-17.985,11.972-28.903,11.972
			c-10.919,0-21.184-4.252-28.904-11.972c-29.008-29.008-76.209-29.01-105.219,0c-7.72,7.72-17.985,11.972-28.903,11.972
			c-10.918,0-21.184-4.252-28.903-11.972c-29.01-29.011-76.211-29.006-105.218,0c-7.721,7.72-17.985,11.972-28.903,11.972
			s-21.184-4.252-28.903-11.972c-6.546-6.546-17.159-6.546-23.706,0c-6.546,6.545-6.546,17.158,0,23.706
			c14.053,14.053,32.736,21.792,52.61,21.792c19.873,0,38.556-7.739,52.609-21.792c15.938-15.937,41.871-15.937,57.807,0
			c14.053,14.053,32.736,21.792,52.61,21.792s38.556-7.739,52.609-21.792c15.938-15.937,41.87-15.937,57.808,0
			c14.053,14.053,32.736,21.792,52.61,21.792c19.874,0,38.558-7.739,52.61-21.792C478.182,379.853,478.182,369.24,471.635,362.695z"
			/>
	</g>
</g>
<g>
	<g>
		<path style="fill:#337ab7;" d="M390.12,466.503c-14.051-14.053-32.734-21.792-52.608-21.792c-19.873,0-38.557,7.739-52.61,21.792
			c-7.72,7.72-17.985,11.972-28.903,11.972c-10.918,0-21.184-4.252-28.903-11.972c-14.053-14.053-32.736-21.792-52.61-21.792
			c-19.874,0-38.558,7.739-52.61,21.792c-6.545,6.546-6.545,17.159,0,23.706c6.545,6.545,17.159,6.545,23.706,0
			c7.72-7.72,17.985-11.972,28.903-11.972s21.184,4.252,28.903,11.972C217.44,504.261,236.124,512,255.998,512
			s38.558-7.739,52.609-21.792c15.937-15.938,41.87-15.938,57.808,0c6.545,6.545,17.159,6.545,23.706,0
			C396.667,483.663,396.667,473.049,390.12,466.503z"/>
	</g>
</g>
<g>
</g>
<g>
</g>
<g>
</g>
<g>
</g>
<g>
</g>
<g>
</g>
<g>
</g>
<g>
</g>
<g>
</g>
<g>
</g>
<g>
</g>
<g>
</g>
<g>
</g>
<g>
</g>
<g>
</g>
</svg>
