<?xml version="1.0" encoding="utf-8"?>
<!-- Svg Vector Icons : http://www.onlinewebfonts.com/icon -->
<!DOCTYPE svg PUBLIC "-//W3C//DTD SVG 1.1//EN" "http://www.w3.org/Graphics/SVG/1.1/DTD/svg11.dtd">
<svg version="1.1" xmlns="http://www.w3.org/2000/svg" xmlns:xlink="http://www.w3.org/1999/xlink" x="0px" y="0px" viewBox="0 0 1000 1000" enable-background="new 0 0 1000 1000" xml:space="preserve">
<metadata> Svg Vector Icons : http://www.onlinewebfonts.com/icon </metadata>
<g><path style="fill:OrangeRed;" d="M500,10C229.4,10,10,229.4,10,500c0,270.6,219.4,490,490,490c270.6,0,490-219.4,490-490C990,229.4,770.6,10,500,10z M677.4,122.4c84,40.1,152.6,107.1,194.9,189.8L741.5,413.4c-23.5-65.5-72.8-118.6-135.7-147.1L677.4,122.4z M315.9,121.2l76.7,145.9c-61.9,28.6-110.5,81.1-133.8,145.7l-141.7-98.2C159.7,229.9,229.9,161.5,315.9,121.2z M307.2,883.6c-76.3-37.9-139.5-98.2-181.1-172.2l141.3-103.3c26.2,56.4,72.4,101.7,129.5,126.8L307.2,883.6z M312.4,500c0-103.6,84-187.6,187.6-187.6c103.6,0,187.6,84,187.6,187.6c0,103.6-84,187.6-187.6,187.6C396.4,687.6,312.4,603.6,312.4,500z M687,881.8l-74.2-151.4c51.7-25.4,93.7-67.7,118.6-119.7L863,713.9C822.1,785.6,760.8,844.2,687,881.8z"/></g>
</svg>