<?xml version="1.0" encoding="iso-8859-1"?>
<!-- Generator: Adobe Illustrator 18.0.0, SVG Export Plug-In . SVG Version: 6.00 Build 0)  -->
<!DOCTYPE svg PUBLIC "-//W3C//DTD SVG 1.1//EN" "http://www.w3.org/Graphics/SVG/1.1/DTD/svg11.dtd">
<svg xmlns="http://www.w3.org/2000/svg" xmlns:xlink="http://www.w3.org/1999/xlink" version="1.1" id="Capa_1" x="0px" y="0px" viewBox="0 0 490.344 490.344" style="enable-background:new 0 0 490.344 490.344;" xml:space="preserve" width="512px" height="512px">
<g>
	<path d="M419.188,342.108c-0.845,0-1.629,0.479-1.997,1.237l-37.541,75.93c-0.37,0.742-0.221,1.636,0.337,2.242   c0.56,0.6,1.449,0.799,2.218,0.479l20.639-8.467v39.426H87.501V316.337h44.918c5.473,0,9.91-4.437,9.91-9.903V183.91   c0-5.467-4.438-9.903-9.91-9.903H87.501V37.389h315.342v39.425l-20.639-8.468c-0.769-0.32-1.658-0.12-2.218,0.479   c-0.558,0.606-0.707,1.501-0.337,2.243l37.541,75.93c0.368,0.757,1.152,1.236,1.997,1.236c0.843,0,1.628-0.479,1.995-1.236   l37.541-75.93c0.369-0.742,0.227-1.637-0.336-2.243c-0.559-0.599-1.449-0.799-2.217-0.479l-20.639,8.468V21.044   c0-9.026-7.31-16.344-16.345-16.344H71.156c-9.034,0-16.345,7.318-16.345,16.344v152.963H9.91c-5.472,0-9.91,4.436-9.91,9.903   v122.523c0,5.466,4.438,9.903,9.91,9.903h44.901v152.962c0,9.027,7.311,16.346,16.345,16.346h348.031   c9.034,0,16.345-7.318,16.345-16.346v-55.77l20.639,8.467c0.768,0.32,1.658,0.121,2.217-0.479c0.563-0.606,0.705-1.5,0.336-2.242   l-37.541-75.93C420.815,342.587,420.03,342.108,419.188,342.108z" fill="#428bca"/>
	<path d="M419.172,174.007c-39.298,0-71.157,31.859-71.157,71.165c0,39.305,31.859,71.165,71.157,71.165   c39.311,0,71.172-31.86,71.172-71.165C490.344,205.866,458.483,174.007,419.172,174.007z" fill="#428bca"/>
</g>
<g>
</g>
<g>
</g>
<g>
</g>
<g>
</g>
<g>
</g>
<g>
</g>
<g>
</g>
<g>
</g>
<g>
</g>
<g>
</g>
<g>
</g>
<g>
</g>
<g>
</g>
<g>
</g>
<g>
</g>
</svg>
