<!-- Generated by IcoMoon.io -->
<svg version="1.1" xmlns="http://www.w3.org/2000/svg" width="1024" height="1024" viewBox="0 0 1024 1024">
<title></title>
<g id="icomoon-ignore">
</g>
<path d="M148.631 660.614c82.067 0 148.599-66.532 148.599-148.616 0-82.082-66.532-148.616-148.599-148.616-82.094 0-148.631 66.534-148.631 148.616 0 82.084 66.536 148.616 148.631 148.616z"></path>
<path d="M148.597 309.564c1.765 0 3.402-1 4.17-2.583l78.398-158.567c0.773-1.55 0.462-3.417-0.704-4.682-1.169-1.253-3.026-1.669-4.632-1l-43.101 17.682v-82.334h658.54v285.303h-93.804c-11.429 0-20.695 9.266-20.695 20.681v255.871c0 11.417 9.268 20.681 20.695 20.681h93.804v285.303h-658.538v-82.332l43.101 17.684c1.606 0.668 3.462 0.251 4.632-1 1.165-1.266 1.476-3.135 0.704-4.684l-78.398-158.567c-0.769-1.581-2.406-2.581-4.17-2.581-1.76 0-3.4 1-4.166 2.581l-78.398 158.567c-0.771 1.55-0.474 3.419 0.702 4.684 1.167 1.251 3.026 1.669 4.63 1l43.101-17.684v116.466c0 18.849 15.266 34.132 34.134 34.132h726.801c18.866 0 34.134-15.282 34.134-34.132v-319.437h93.768c11.427 0 20.695-9.264 20.695-20.681v-255.868c0-11.415-9.268-20.681-20.695-20.681h-93.768v-319.435c0-18.851-15.268-34.136-34.134-34.136h-726.804c-18.866 0-34.134 15.282-34.134 34.136v116.466l-43.101-17.682c-1.604-0.668-3.462-0.253-4.63 1-1.176 1.266-1.472 3.132-0.702 4.682l78.398 158.567c0.769 1.581 2.408 2.581 4.166 2.581z"></path>
</svg>
